<?xml version="1.0" encoding="UTF-8"?>
<svg version="1.1" xmlns="http://www.w3.org/2000/svg" width="261" height="191">
<path d="M0 0 C2.23162653 1.57806233 4.41236677 3.20801751 6.5847168 4.86669922 C7.80191406 5.77935547 7.80191406 5.77935547 9.04370117 6.71044922 C11.6488009 8.66875184 14.24302046 10.64069912 16.8347168 12.61669922 C17.69774414 13.27347656 18.56077148 13.93025391 19.44995117 14.60693359 C22.96792079 17.28541755 26.48426232 19.96598451 29.99584961 22.65283203 C35.73118979 27.03619515 41.51126345 31.35124034 47.3347168 35.61669922 C55.01735582 41.24521266 62.61860375 46.97334086 70.17016602 52.77661133 C74.27682848 55.928746 78.39740632 59.04358796 82.61206055 62.05029297 C83.3491626 62.58187012 84.08626465 63.11344727 84.84570312 63.66113281 C86.2046062 64.63695673 87.57235223 65.60064432 88.95068359 66.54882812 C93.26977897 69.66955179 95.25733605 72.36250569 96.8347168 77.61669922 C97.14032672 80.36718854 97.30124308 82.81781223 97.2722168 85.55419922 C97.29219727 86.21871094 97.31217773 86.88322266 97.33276367 87.56787109 C97.32674267 93.7755246 95.56066775 98.88140615 91.125 103.33227539 C89.06428541 105.06075811 86.94743735 106.65984786 84.7722168 108.24169922 C83.98218262 108.8357959 83.19214844 109.42989258 82.37817383 110.04199219 C79.87567928 111.91701324 77.35688093 113.7682472 74.8347168 115.61669922 C73.21830123 116.81390043 71.60240788 118.01180707 69.98706055 119.21044922 C66.80497591 121.56608162 63.61558786 123.91134023 60.4206543 126.24951172 C56.20131289 129.34040411 52.01271286 132.47023598 47.8347168 135.61669922 C41.35138918 140.4976342 34.82113676 145.31188928 28.27246094 150.10473633 C23.9082005 153.31096062 19.58873488 156.56488563 15.3112793 159.88623047 C14.38726318 160.60133789 13.46324707 161.31644531 12.51123047 162.05322266 C10.74001826 163.42800792 8.97415528 164.80972496 7.21484375 166.19970703 C-0.75397956 172.37752769 -8.19550686 177.51360137 -18.5559082 176.97216797 C-25.29340342 176.05433554 -29.77487441 173.95638559 -34.1652832 168.61669922 C-34.63192383 168.08560547 -35.09856445 167.55451172 -35.5793457 167.00732422 C-40.33446821 160.79113055 -40.12826144 154.14156452 -39.1652832 146.61669922 C-37.29828588 137.30896804 -29.62664537 132.58084894 -22.3684082 127.37841797 C-14.85347776 121.94532637 -7.53154049 116.2497195 -0.1652832 110.61669922 C-50.6552832 110.28669922 -101.1452832 109.95669922 -153.1652832 109.61669922 C-153.1652832 94.10669922 -153.1652832 78.59669922 -153.1652832 62.61669922 C-102.0152832 62.28669922 -50.8652832 61.95669922 1.8347168 61.61669922 C-4.4352832 56.99669922 -10.7052832 52.37669922 -17.1652832 47.61669922 C-36.68459395 32.89450722 -36.68459395 32.89450722 -39.1652832 24.61669922 C-39.99441572 17.91663845 -40.10710637 11.32872239 -36.5637207 5.39794922 C-26.57169343 -7.32932575 -13.26540312 -8.47466164 0 0 Z " fill="#000000" transform="translate(160.165283203125,9.38330078125)"/>
</svg>
