<?xml version="1.0" encoding="UTF-8"?>
<svg version="1.1" xmlns="http://www.w3.org/2000/svg" width="233" height="232">
<path d="M0 0 C3.59240942 1.52578647 5.9076538 3.64934671 8.66377258 6.38961792 C9.59627335 7.31214355 10.52877411 8.23466919 11.48953247 9.18515015 C12.5156761 10.21039804 13.54170371 11.23576205 14.56762695 12.26123047 C15.65317844 13.33915947 16.73913116 14.41668453 17.82545471 15.49383545 C20.77220434 18.41865076 23.71236447 21.35000351 26.65070748 24.28326178 C28.4856187 26.11453023 30.32182142 27.94449352 32.15846825 29.77402115 C38.56229556 36.15336428 44.96039121 42.53839852 51.35375977 48.92822266 C57.32005998 54.89088139 63.29938227 60.84026176 69.28473312 66.78379142 C74.41971646 71.88414439 79.54509804 76.99401381 84.66314477 82.11136162 C87.7216945 85.16911651 90.78413364 88.22272049 93.85643959 91.26665878 C96.7427139 94.12687454 99.6169165 96.99868131 102.48212242 99.87999725 C103.53761959 100.93731828 104.59743402 101.99034896 105.66174316 103.03879929 C107.10968216 104.46646277 108.54093114 105.91099552 109.97114563 107.35641479 C110.77804997 108.16130781 111.58495432 108.96620083 112.41631031 109.79548454 C114 112 114 112 114.02269363 113.99678612 C112.62979919 116.72513544 110.83770537 118.53040412 108.66575623 120.69500732 C108.21162749 121.15169934 107.75749875 121.60839135 107.28960854 122.07892251 C105.76578643 123.60768679 104.23148815 125.12548052 102.69702148 126.64355469 C101.60264755 127.73708245 100.50893371 128.83127115 99.41583252 129.92607117 C96.44539457 132.89737086 93.46578893 135.85932166 90.4844768 138.81970501 C87.37077979 141.91466509 84.26556026 145.01810667 81.15943909 148.1206665 C75.2757871 153.99498927 69.38452864 159.86162201 63.49051291 165.72554421 C56.78096403 172.40157643 50.07991826 179.08611572 43.37958038 185.77139044 C29.59584057 199.52376134 15.80143532 213.26538899 2 227 C-1.62077274 225.46901121 -3.93090295 223.31585971 -6.69500732 220.54550171 C-7.15169934 220.09051855 -7.60839135 219.63553539 -8.07892251 219.16676486 C-9.60525765 217.64371927 -11.12434275 216.11364455 -12.64355469 214.58349609 C-13.7372972 213.48918935 -14.83148048 212.39532298 -15.92607117 211.30186462 C-18.89511071 208.33339913 -21.85794139 205.35880551 -24.81970501 202.38308287 C-27.91644932 199.27384007 -31.01885445 196.17025626 -34.1206665 193.06607056 C-39.99297582 187.18754389 -45.86016807 181.30393733 -51.72554421 175.41849387 C-58.40354662 168.71814043 -65.08722572 162.02346192 -71.77139044 155.32925677 C-85.52059148 141.55914795 -99.26263862 127.78191984 -113 114 C-107.85042578 107.76734076 -102.2203721 102.0853018 -96.49658203 96.38305664 C-95.44130823 95.32806536 -94.38625547 94.27285294 -93.33140564 93.21743774 C-90.48491224 90.37065894 -87.63535925 87.52696106 -84.78522348 84.68382955 C-81.80056205 81.70544451 -78.81875638 78.72420316 -75.8366394 75.74327087 C-70.19708118 70.10681337 -64.55498002 64.47290855 -58.91194808 58.83992904 C-52.48431277 52.42349406 -46.05953682 46.00419923 -39.63499284 39.58466923 C-26.42649513 26.38660739 -13.21443242 13.19211963 0 0 Z " fill="#000000" transform="translate(116,2)"/>
</svg>
