<?xml version="1.0" encoding="UTF-8"?>
<svg version="1.1" xmlns="http://www.w3.org/2000/svg" width="195" height="173">
<path d="M0 0 C0.66 0 1.32 0 2 0 C2.35078613 0.63164062 2.70157227 1.26328125 3.06298828 1.9140625 C9.60185567 13.67428011 16.18615751 25.3965352 23 37 C28.37201946 46.14910331 33.59076562 55.37403198 38.75 64.64453125 C42.74964452 71.81353695 46.84348044 78.92092763 51 86 C56.36381412 95.13524592 61.57654731 104.34514638 66.72583008 113.6027832 C71.52467074 122.20767094 76.46550808 130.7245827 81.47070312 139.2109375 C82.02048828 140.14550781 82.57027344 141.08007812 83.13671875 142.04296875 C83.61842529 142.85789795 84.10013184 143.67282715 84.59643555 144.51245117 C86.16270385 147.28836138 87.57459663 150.14919325 89 153 C30.92 153 -27.16 153 -87 153 C-77.27903794 135.17823621 -67.48863673 117.42227268 -57.20117188 99.92114258 C-53.04215763 92.83058469 -48.99694311 85.68302526 -45 78.5 C-39.86662372 69.27581906 -34.60422475 60.13759248 -29.25878906 51.03491211 C-24.99823005 43.76033579 -20.85249527 36.42722716 -16.75 29.0625 C-12.62158928 21.66547695 -8.4921513 14.27006953 -4.25 6.9375 C-3.84362305 6.22279541 -3.43724609 5.50809082 -3.01855469 4.77172852 C-2.06958793 3.14636619 -1.04301234 1.5666735 0 0 Z " fill="#000000" transform="translate(95,10)"/>
</svg>
